<?xml version="1.0" encoding="utf-8"?>
<!-- Generator: Adobe Illustrator 27.5.0, SVG Export Plug-In . SVG Version: 6.00 Build 0)  -->
<svg version="1.1" id="Layer_1" xmlns="http://www.w3.org/2000/svg" xmlns:xlink="http://www.w3.org/1999/xlink" x="0px" y="0px"
	 viewBox="-2.166 -68.462 65 53.042" style="enable-background:new -2.166 -68.462 65 53.042;" xml:space="preserve">
<rect x="-2.166" y="-68.462" style="fill-rule:evenodd;clip-rule:evenodd;fill:#1B6FA8;" width="65" height="53.042"/>
<g>
	<path style="fill-rule:evenodd;clip-rule:evenodd;fill:#F5F5F5;" d="M31.932-53.933c3.846-0.875,7.669,1.416,8.542,5.217
		c0.473,1.913,0.165,3.636-0.873,5.265C38.8-50.486,28.18-48.526,28.18-48.526c-0.212-0.402,0.355-1.629,1.132-4.18
		C30.069-53.272,30.752-53.65,31.932-53.933L31.932-53.933z M33.443-37.856c-1.817,1.536-3.516,2.881-4.248,3.354
		c-0.259,0.163-0.756,0.163-1.038,0C12.112-45.528,26.174-38.492,33.443-37.856L33.443-37.856z M25.443-53.933
		c0.921,0.212,1.958,0.802,2.878,1.534c-0.117,0.118-0.211,0.26-0.331,0.496c-0.425,0.755-0.849,1.487-1.251,2.243
		c-0.424,0.755-0.826,1.511-1.25,2.267c-0.661,0.259-1.344,0.496-2.052,0.755c-1.864,0.661-1.369,1.771,0.236,1.298
		c0.66-0.188,1.345-0.354,2.028-0.519c0.544,0.449,1.109,0.873,1.676,1.322c0.567,0.448,1.109,0.897,1.675,1.345
		c0.85,0.709,0.567,0.591,1.746,0.212c-1.556-2.054-2.478-2.88-2.382-3.376c7.951-3.329,11.751,4.274,4.955,4.982
		C10.909-39.153,14.754-56.342,25.443-53.933L25.443-53.933z"/>
</g>
<g>
	<path style="fill:#F5F5F5;" d="M16.891-30.705v2.338h1.534v0.537h-2.108v-2.875H16.891z"/>
	<path style="fill:#F5F5F5;" d="M19.164-28.243c-0.274-0.276-0.411-0.617-0.411-1.024c0-0.409,0.137-0.751,0.411-1.026
		c0.275-0.274,0.617-0.411,1.025-0.411c0.409,0,0.751,0.137,1.026,0.411c0.275,0.275,0.412,0.617,0.412,1.026
		c0,0.409-0.137,0.75-0.412,1.025c-0.275,0.275-0.617,0.412-1.026,0.412C19.781-27.83,19.439-27.967,19.164-28.243z M20.192-28.367
		c0.254,0,0.461-0.086,0.621-0.259c0.16-0.172,0.24-0.387,0.24-0.642c0-0.256-0.08-0.471-0.24-0.642
		c-0.16-0.173-0.368-0.259-0.625-0.259c-0.254,0-0.461,0.086-0.621,0.259c-0.16,0.171-0.239,0.386-0.239,0.642
		c0,0.255,0.08,0.47,0.239,0.642C19.727-28.453,19.935-28.367,20.192-28.367z"/>
	<path style="fill:#F5F5F5;" d="M22.492-30.705l0.816,2.106l0.832-2.106h0.614l-1.148,2.875H23.03l-1.152-2.875H22.492z"/>
	<path style="fill:#F5F5F5;" d="M25.223-27.83v-2.873l2.112-0.002v0.537h-1.537v0.612h1.152v0.535h-1.152v0.653h1.533v0.537H25.223z
		"/>
	<path style="fill:#F5F5F5;" d="M31.601-30.705v0.537h-0.958v2.338h-0.575v-2.338H29.11v-0.537H31.601z"/>
	<path style="fill:#F5F5F5;" d="M32.294-28.243c-0.274-0.276-0.411-0.617-0.411-1.024c0-0.409,0.137-0.751,0.411-1.026
		c0.275-0.274,0.617-0.411,1.026-0.411c0.409,0,0.75,0.137,1.025,0.411c0.275,0.275,0.413,0.617,0.413,1.026
		c0,0.409-0.138,0.75-0.413,1.025c-0.275,0.275-0.615,0.412-1.025,0.412C32.912-27.83,32.57-27.967,32.294-28.243z M33.323-28.367
		c0.254,0,0.461-0.086,0.62-0.259c0.161-0.172,0.24-0.387,0.24-0.642c0-0.256-0.079-0.471-0.24-0.642
		c-0.159-0.173-0.368-0.259-0.624-0.259c-0.255,0-0.461,0.086-0.621,0.259c-0.161,0.171-0.24,0.386-0.24,0.642
		c0,0.255,0.079,0.47,0.24,0.642C32.858-28.453,33.066-28.367,33.323-28.367z"/>
	<path style="fill:#F5F5F5;" d="M36.525-27.83v-2.875h2.021v0.537H37.1v0.612h1.067v0.535H37.1v1.191H36.525z"/>
	<path style="fill:#F5F5F5;" d="M39.545-30.705v2.338h1.533v0.537h-2.109v-2.875H39.545z"/>
	<path style="fill:#F5F5F5;" d="M41.383-30.705h0.676l0.666,0.939l0.683-0.939h0.659l-1.054,1.437v1.438h-0.575v-1.438
		L41.383-30.705z"/>
</g>
</svg>
