<?xml version="1.0" encoding="utf-8"?>
<!-- Generator: Adobe Illustrator 19.0.0, SVG Export Plug-In . SVG Version: 6.00 Build 0)  -->
<svg version="1.1" id="layer" xmlns="http://www.w3.org/2000/svg" xmlns:xlink="http://www.w3.org/1999/xlink" x="0px" y="0px"
	 viewBox="-153 -46 652 652" style="enable-background:new -153 -46 652 652;" xml:space="preserve">
<style type="text/css">
	.st0{fill:#1776CE;}
	.st1{fill:#444444;}
</style>
<path class="st0" d="M50.3,236.1c-14.2,1.6-27.5,5.8-39.4,13.9C-38,282.9-41.5,353.7,1.4,392.1c13,11.6,28.3,18.2,45.5,20.6
	c0,0.5,0,1.1-0.1,1.5c-16.4,0-32.9,1.2-49.1-0.3c-36.4-3.3-67.2-19.2-91-47c-33.4-39.1-43-84.1-26.2-132.6
	c17.3-49.5,53.4-79.8,104.4-90c53.8-10.6,99.9,5.6,136.8,46.6c0.9,1,1.6,1.9,2.4,3c0.2,0.2,0.1,0.6,0.3,1.5
	c-3.2-2.9-5.8-5.5-8.7-7.9c-3-2.5-5.8-5-9-7.1C65,152.3,20.7,147.8-25.9,167c-14.1,5.8-26.4,14.2-37.2,24.6
	c-34.1,32.8-47.2,72.8-37.6,118.8c9.6,45.9,38.3,76.9,81.9,93.8c8.7,3.5,18.4,4.6,27.7,6.8c5.4,0.7,10.7,1.2,16,1.9
	c0.1-0.4,0.2-0.9,0.3-1.2c-12.2-3.5-23.8-8-34.1-15.4c-0.5-0.5-0.9-0.9-1.3-1.3l0.1,0.1c-6-7.1-12.8-13.7-17.9-21.4
	C-55.3,332-42.5,274.2-0.2,248.3c15.2-9.3,31.7-13.7,49.6-11.6c0.3,0,0.6-0.3,0.9-0.4L50.3,236.1z"/>
<path class="st1" d="M-8.8,396.3c10.3,7.5,21.9,12,34.1,15.4c-0.1,0.4-0.2,0.9-0.3,1.2c-5.4-0.7-10.7-1.2-16-1.9
	c-1.5-0.7-3-1.4-4.6-1.9c-44.5-12-78-50-84.2-95.5c-8-58.5,31.9-114.8,89.9-126.7c8-1.6,16.1-2.1,24.2-2.9c1.6-0.2,3.3,0.4,4.9,1.1
	C24.7,187.3,10.9,191-1.8,198c-41.6,22.8-63.6,58-62.5,105.5c1,38.3,19.1,68.4,50.6,90.3c1,0.7,2.3,0.8,3.5,1.2l-0.1-0.1
	c-0.1,0.4-0.2,1-0.2,1.1C-9.9,396.2-9.3,396.2-8.8,396.3L-8.8,396.3z"/>
<path class="st1" d="M50.3,236.1L50.3,236.1c1.9-0.5,3.9-1.2,6.2-1.8c-1.2-4-2.3-7.8-3.6-12.1c5.8,0.4,6.4,5.9,10.1,8.9h12.4
	c-3.8-7.6-7.4-14.6-10.9-21.7c0.4-0.4,0.8-0.9,1.2-1.2c9.6,1,12.2,11.7,19.6,15.7c1.8,0.2,3.7,0.4,6.3,0.7c-0.4,1.7-0.8,3.1-1.2,4.9
	c5.8,4.9,13.2-0.2,19.5,2.8c3.1,5.4,1.6,8.3-4.2,8.4c-3.5,0.1-7-0.1-10.5,0.1c-1.6,0.1-3.2,0.8-5.1,1.3c0.7,1.8,1.1,3,1.8,4.9
	c-2.3,0.4-4.2,0.8-6.4,1.2c-7.2,4.6-10.4,14.8-20,16.9c-0.5-0.4-0.9-0.7-1.3-1.1c3.7-7.6,7.5-15.1,11.4-23c-4,0-7.7,0-11.4,0
	c-3.8,2.7-4.3,9-10.8,10.6c1.2-4.5,2.2-8.2,3.3-11.8C54.1,238.3,52.2,237.3,50.3,236.1L50.3,236.1z"/>
<path class="st1" d="M53.6,279v15.4c-11.4,0-22.6,0-34.5,0v18.5h25.2v15.3c-8.3,0-16.8,0-25.7,0V366c-5,0-9.3,0-14,0
	c-0.1-1.3-0.2-2.7-0.2-4c0-21.7,0-43.4,0-65.1c0-12.2,5.8-17.8,17.7-17.8C32.4,279,42.7,279,53.6,279z M124.8,365
	c0-5.7,0-10.2,0-14.9c9.2,1.4,18.8,8.4,27.1-3.5c-2.5-2-4.1-3.9-6.2-5.1c-3.5-1.9-7.3-3.3-10.8-5.1c-9.2-4.7-13-14.5-10-24.6
	c2.7-8.7,10.2-13.3,20.6-12.1c4.4,0.5,8.6,1.7,12.9,2.7v14c-3.9-1-7.5-2.1-11.1-2.8c-3.7-0.7-7.7-0.8-11.6,3.4
	c1.6,1.6,3.1,3.6,4.9,4.7c2.9,1.6,6,2.9,9.1,4c12.7,4.9,14.7,15.9,12.3,26.7c-2.1,9.6-11.9,15.9-22.7,15
	C134.5,367.2,129.8,366,124.8,365L124.8,365z M173,315.3c-2-0.2-3.6-0.4-5.8-0.6c0-1.7,0-3.4,0-4.9c0-2.9,0-5.7,0-8.7
	c1.9-0.1,3.5-0.2,5.5-0.3c0-4.8,0-9.7,0-14.9h13.1v15h13.4V315c-4.3,0-8.4,0-12.8,0c0,11.2-0.3,22,0.1,32.8c0.2,4.7,4.7,6.5,9.9,4.8
	c1.9-0.7,3.7-1.3,6-2.2v14c-12.6,8-26.3,2.4-28.5-12.1c-1.2-8.6-0.8-17.4-1-26.3C172.9,322.4,173,318.9,173,315.3L173,315.3z
	 M90.3,301.1h11.6c0.4,0.9,0.9,1.9,1.2,2.5c5.5-1.6,10.7-3.2,16.5-4.9v14.8c-5.6,1-11,1.9-16.6,2.9v49.4c-4.3,0-8.4,0-12.7,0
	C90.3,344.5,90.3,323,90.3,301.1L90.3,301.1z M73.6,366.1c-4.3,0-8.2,0-12.5,0c0-21.6,0-43,0-64.8h12.5V366.1z M164.7,397.7
	c2.1,4.8,4.1,9.4,6.3,14.7c-3.5,0-6.2,0-8.9,0c-3.7-3.3-0.4-11.8-9.2-11.7v11.7c-3,0-5.7,0-8.6,0c0-9.8,0-19.6,0-29.7
	c5.7,0,11.2-0.4,16.8,0.1c3.7,0.4,7.6,1.8,8.3,6.5C170.2,394.1,167.3,396.5,164.7,397.7L164.7,397.7z M153.1,387v9
	c3.8,0.1,7.5-0.3,7.4-4.8C160.4,386.5,156.6,386.9,153.1,387z M264.5,403.3c1.6-6.8,3.3-13.6,4.9-20.5h9.9c-3.5,10-7,19.8-10.4,29.8
	c-3.5,0-6.6,0-10.2,0c-3.4-9.9-6.7-19.7-10.2-29.9h9.9c1.7,6.8,3.5,13.8,5.3,20.7C263.9,403.4,264.2,403.3,264.5,403.3L264.5,403.3z
	 M204.2,412.6c-2.7,0-5.2,0-8.4,0c3.4-10.2,6.6-20.1,9.9-29.9h10.9c2.9,9.9,5.8,19.6,8.8,29.7c-3,0-5.6,0-8.5,0
	c-0.7-2-1.3-4-2.2-6.4c-2.6,0-5.2,0-8,0C205.9,408.1,205.1,410.3,204.2,412.6L204.2,412.6z M210.8,387.8c-1.2,5.1-2.3,9-3.4,13.1
	h6.2C212.9,396.9,212,393.1,210.8,387.8z M327.1,412.5c-6.9,0-13.4,0-20.1,0c0-10.1,0-19.8,0-29.8h19.4c0.1,1.4,0.1,2.8,0.2,4.7
	c-3.6,0-7.1,0-10.7,0v6.9h10c0.2,1.7,0.3,3,0.5,4.9c-3.6,0-6.9,0-10.4,0v8.1h11.2L327.1,412.5z M98.9,388c-3.2,0-5.5,0-8.1,0
	c-0.1-1.9-0.2-3.5-0.3-5.3h24.9v5.4c-2.6,0-4.9,0-7.7,0v24.2c-3.1,0-5.8,0-8.8,0C98.9,404.5,98.9,396.7,98.9,388z M365.6,407.4h11.6
	c0.1,1.7,0.3,3.2,0.4,5.3c-3.7,0-7,0-10.4,0c-3.4,0-6.6,0-10.2,0c0-10.3,0-20,0-30h8.4C365.6,390.8,365.6,398.9,365.6,407.4z
	 M73.9,294.6c-4.3,0-8.4,0-12.8,0c0-5.1,0-10.2,0-15.4h12.8V294.6z"/>
<path class="st0" d="M262.5,289.8h11v24.4c2.3-1.1,3.9-1.9,5.7-2.6c10.9-4.3,21.2,1,23.1,12.6c1.1,6.4,0.8,13,1,19.6
	c0.1,7.3,0,14.6,0,22.1c-3.9,0-7.4,0-11.6,0c0-2.8,0-5.6,0-8.3c0-8.1,0-16.3,0-24.4c0-3.8,0.2-8.1-3.8-10.1
	c-4.2-2.1-8.1-0.4-11.9,1.9c-0.7,0.4-1.3,0.9-2.2,1.5v39.1c-3.7,0.3-7.3,0.5-11.2,0.8C262.5,340.4,262.5,315.3,262.5,289.8
	L262.5,289.8z M253,296v10.8c0,0.6-0.2,1.2-0.4,2.1c-4-1.2-7.9-2.7-11.7-3.5c-8.7-1.9-15.2,0.7-19,9.8c-3.2,7.8-3.5,15.8-1.5,24
	c3.2,13,12.9,17.9,26,13.1c2.2-0.8,4.3-1.7,6.8-2.7v13.5c-17.2,10-36.8,2.9-43.5-16c-4.3-12-4.2-24.1,0.6-36
	C217.3,293,235.6,286.5,253,296L253,296z M469.8,352.4v12.3c-20,7.6-41.6-0.6-39.5-28.8c0.5-6.9,2.2-13.5,7-19
	c9.3-10.6,25.3-8.6,31.4,3.9c3.5,7.2,4,14.9,3.6,23.1c-10,0-19.6,0-29,0C443.2,354.5,451.3,357.1,469.8,352.4L469.8,352.4z
	 M460.4,332.4c-0.3-7-3.3-10.5-8.6-10.5c-5.2,0.1-8.3,3.8-8.7,10.5H460.4z M332.7,367.2c-7-0.3-13.4-4.4-16.9-12.2
	c-5.1-11.4-5-22.9,0.8-34.1c3.5-6.9,9.6-10.5,17.4-10.7s13.8,3.3,17.9,9.9c7.1,11.6,5.9,29.9-2.4,40.4
	C346.4,364.6,340.2,367.2,332.7,367.2L332.7,367.2z M345.5,338.7c-1.2-4.1-1.8-8.5-3.8-12.2c-3.5-6.3-11.2-6.1-14.6,0.3
	c-4.1,7.8-4.1,16,0.2,23.8c3.4,5.9,11,6,14.4,0.1C343.6,347.2,344.2,343,345.5,338.7L345.5,338.7z M425,352.1v11
	c-12,9-28.8,3.5-34.3-11.8c-3.3-8.8-3.1-17.8,0.3-26.6c5.5-14,19.2-18.4,33.7-10.8v11.4c-4-1.1-7.7-2.6-11.5-3.1
	c-7.4-0.8-12.7,4.5-12.9,12v2.4c0.2,17.3,6.8,21.8,23,15.7C423.7,352.1,424.2,352.2,425,352.1L425,352.1z M377.8,366
	c-3.7,0-7.1,0-10.7,0c0-18.1,0-36,0-54.2h10.7V366z M378,293.2v12.4c-3.7,0-7.2,0-10.9,0c0-4.1,0-8.1,0-12.4H378z"/>
</svg>
